<?xml version="1.0" standalone="no"?>
<svg viewBox="0 0 200 200" xmlns="http://www.w3.org/2000/svg">
  <path fill="#29ADA0" d="M37.9,-58.3C48.7,-52.1,56.6,-40.8,66.2,-27.9C75.9,-14.9,87.2,-0.4,86.6,13.4C86.1,27.1,73.6,40.1,60.5,48.8C47.3,57.5,33.4,62,19.8,65C6.1,68,-7.4,69.4,-22.3,68.5C-37.2,67.5,-53.6,64.1,-61.6,53.9C-69.5,43.8,-69,26.8,-67.5,12C-66.1,-2.8,-63.8,-15.4,-60.5,-29.7C-57.3,-44,-53,-60,-42.8,-66.4C-32.5,-72.9,-16.3,-69.9,-1.3,-67.8C13.6,-65.7,27.1,-64.5,37.9,-58.3Z" transform="translate(100 100)" />
</svg>
